<svg xmlns="http://www.w3.org/2000/svg" xmlns:xlink="http://www.w3.org/1999/xlink" width="95" height="90.25" viewBox="0 0 95 90.25"><defs><filter id="a" x="0" y="0" width="95" height="90.25" filterUnits="userSpaceOnUse"><feOffset dy="8" input="SourceAlpha"/><feGaussianBlur stdDeviation="5" result="b"/><feFlood flood-opacity="0.161" result="c"/><feComposite operator="out" in="SourceGraphic" in2="b"/><feComposite operator="in" in="c"/><feComposite operator="in" in2="SourceGraphic"/></filter></defs><g data-type="innerShadowGroup"><path d="M98,37.39,63.848,34.445,50.5,3,37.153,34.493,3,37.39,28.935,59.857,21.145,93.25,50.5,75.533,79.855,93.25,72.113,59.857ZM50.5,66.65,32.64,77.433,37.39,57.1,21.62,43.423l20.8-1.8L50.5,22.475l8.123,19.19L79.428,43.47,63.658,57.15l4.75,20.33Z" transform="translate(-3 -3)" fill="#f7f75d"/><g transform="matrix(1, 0, 0, 1, 0, 0)" filter="url(#a)"><path d="M98,37.39,63.848,34.445,50.5,3,37.153,34.493,3,37.39,28.935,59.857,21.145,93.25,50.5,75.533,79.855,93.25,72.113,59.857ZM50.5,66.65,32.64,77.433,37.39,57.1,21.62,43.423l20.8-1.8L50.5,22.475l8.123,19.19L79.428,43.47,63.658,57.15l4.75,20.33Z" transform="translate(-3 -3)" fill="#fff"/></g></g></svg>