<svg xmlns="http://www.w3.org/2000/svg" width="47.816" height="46.632" viewBox="0 0 47.816 46.632"><path d="M23.908.446a23.909,23.909,0,0,0-7.561,46.591c1.2.225,1.634-.514,1.634-1.15,0-.568-.02-2.072-.03-4.064C11.3,43.265,9.9,38.615,9.9,38.615c-1.088-2.759-2.66-3.5-2.66-3.5-2.166-1.482.167-1.452.167-1.452a5.013,5.013,0,0,1,3.662,2.463c2.132,3.656,5.6,2.6,6.963,1.988a5.1,5.1,0,0,1,1.514-3.2c-5.31-.6-10.89-2.654-10.89-11.815a9.224,9.224,0,0,1,2.461-6.415,8.5,8.5,0,0,1,.209-6.328s2-.642,6.575,2.451a22.54,22.54,0,0,1,11.954,0C34.4,9.72,36.4,10.361,36.4,10.361a8.736,8.736,0,0,1,.239,6.328A9.261,9.261,0,0,1,39.088,23.1c0,9.185-5.588,11.207-10.908,11.795a5.724,5.724,0,0,1,1.614,4.423c0,3.2-.03,5.77-.03,6.547,0,.628.418,1.375,1.644,1.136A23.879,23.879,0,0,0,23.908.445" transform="translate(0 -0.445)"/></svg>